<svg width="35" height="32" viewBox="0 0 35 32" fill="none" xmlns="http://www.w3.org/2000/svg">
<g clip-path="url(#clip0_3683_52420)">
<path d="M35 4.5H7.375L6.375 0.5H0.25V2.625H4.75L10.125 25.375H13.875C12.875 25.875 12.125 27 12.125 28.25C12.125 30.125 13.625 31.625 15.5 31.625C17.375 31.625 18.75 30.125 18.75 28.25C18.75 27 18 25.875 17 25.375H24.25C23.25 25.875 22.5 27 22.5 28.25C22.5 30.125 24 31.625 25.875 31.625C27.75 31.625 29.125 30.125 29.125 28.25C29.125 27 28.375 25.875 27.375 25.375H31.5V23.25H11.75L11 20.375H31.75L35 4.5ZM15.375 29.75C14.5 29.75 13.875 29.125 13.875 28.25C13.875 27.375 14.5 26.75 15.375 26.75C16.25 26.75 16.875 27.375 16.875 28.25C16.875 29.125 16.25 29.75 15.375 29.75ZM25.75 29.75C24.875 29.75 24.25 29.125 24.25 28.25C24.25 27.375 24.875 26.75 25.75 26.75C26.625 26.75 27.25 27.375 27.25 28.25C27.25 29.125 26.5 29.75 25.75 29.75ZM10.625 18.25L7.875 6.75H32.5L30.25 18.25H10.625Z" fill="#343E49"/>
</g>
<defs>
<clipPath id="clip0_3683_52420">
<rect width="35" height="32" fill="white"/>
</clipPath>
</defs>
</svg>
