<?xml version="1.0" encoding="UTF-8"?>
<svg xmlns="http://www.w3.org/2000/svg" xmlns:xlink="http://www.w3.org/1999/xlink" width="29px" height="29px" viewBox="0 0 29 29" version="1.1">
<g id="surface1">
<path style=" stroke:none;fill-rule:nonzero;fill:rgb(0%,0%,0%);fill-opacity:1;" d="M 11.707031 0 C 5.5 0 0.46875 5.03125 0.46875 11.238281 C 0.46875 17.445312 5.5 22.476562 11.707031 22.476562 C 14.09375 22.476562 16.304688 21.730469 18.125 20.464844 L 26.621094 28.960938 C 26.699219 29.035156 26.824219 29.035156 26.898438 28.964844 L 28.496094 27.363281 C 28.570312 27.289062 28.566406 27.164062 28.492188 27.089844 L 20.105469 18.703125 C 21.871094 16.71875 22.945312 14.105469 22.945312 11.238281 C 22.945312 5.03125 17.910156 0 11.707031 0 Z M 11.707031 21.152344 C 6.230469 21.152344 1.789062 16.714844 1.789062 11.238281 C 1.789062 5.761719 6.230469 1.320312 11.707031 1.320312 C 17.183594 1.320312 21.621094 5.761719 21.621094 11.238281 C 21.621094 16.714844 17.183594 21.152344 11.707031 21.152344 Z M 11.707031 21.152344 "/>
</g>
</svg>
